name analog
datacolumns 19
datarows 27
range 0.396 0.40900000000000003
endheader
time	ground_force_vx	ground_force_vy	ground_force_vz	ground_force_px	ground_force_py	ground_force_pz	l_ground_force_vx	l_ground_force_vy	l_ground_force_vz	l_ground_force_px	l_ground_force_py	l_ground_force_pz	ground_torque_x	ground_torque_y	ground_torque_z	l_ground_torque_x	l_ground_torque_y	l_ground_torque_z
0.396	-0.0	-0.0	-0.0	4.912382125854492	12.703981399536133	-386.9769592285156	2.803096294403076	-15.456295013427734	-400.9304809570313	-0.0	-0.0	-0.0	-0.0	-0.0	-0.0	90903.390625	-13681.1220703125	-6489.4853515625
0.3965	-0.0	-0.0	-0.0	4.99578857421875	12.436924934387209	-388.0086059570313	2.634725570678711	-15.217811584472656	-400.6166687011719	-0.0	-0.0	-0.0	-0.0	-0.0	-0.0	91154.0	-13713.8876953125	-6643.75439453125
0.397	-0.0	-0.0	-0.0	4.398761749267578	13.65754508972168	-386.9221496582031	2.208960056304932	-15.403261184692385	-401.0357055664063	-0.0	-0.0	-0.0	-0.0	-0.0	-0.0	90854.265625	-13498.859375	-6635.234375
0.3975	-0.0	-0.0	-0.0	4.419740200042725	12.889782905578612	-387.7350769042969	1.8362126350402832	-15.571213722229004	-399.7071838378906	-0.0	-0.0	-0.0	-0.0	-0.0	-0.0	90499.875	-13292.896484375	-6514.07421875
0.398	-0.0	-0.0	-0.0	3.829590559005737	13.150830268859863	-388.7419128417969	1.5784270763397217	-15.429642677307127	-399.2187194824219	-0.0	-0.0	-0.0	-0.0	-0.0	-0.0	90326.296875	-13277.67578125	-6724.25
0.3985	-0.0	-0.0	-0.0	3.7255759239196777	13.403502464294434	-389.8264770507813	1.215145707130432	-15.226276397705078	-399.7786254882813	-0.0	-0.0	-0.0	-0.0	-0.0	-0.0	90051.3828125	-12990.3251953125	-6798.841796875
0.399	-0.0	-0.0	-0.0	2.787113904953003	13.682944297790527	-389.0946350097656	1.0914148092269895	-15.333187103271484	-397.40869140625	-0.0	-0.0	-0.0	-0.0	-0.0	-0.0	89891.578125	-12856.9375	-6831.23388671875
0.3995	-0.0	-0.0	-0.0	2.7873363494873047	13.430960655212402	-390.97021484375	1.2419509887695312	-15.145538330078123	-397.6087036132813	-0.0	-0.0	-0.0	-0.0	-0.0	-0.0	89675.1875	-12919.083984375	-6752.08056640625
0.4	-0.0	-0.0	-0.0	2.486304521560669	13.403130531311035	-391.83251953125	0.8986167907714844	-14.838043212890623	-395.45208740234375	-0.0	-0.0	-0.0	-0.0	-0.0	-0.0	89340.8125	-12544.0341796875	-6787.16943359375
0.4005	-0.0	-0.0	-0.0	2.8603310585021973	13.013038635253906	-390.7052307128906	1.2148942947387695	-14.92636489868164	-395.2099609375	-0.0	-0.0	-0.0	-0.0	-0.0	-0.0	89199.0703125	-12549.46875	-6807.5615234375
0.401	-0.0	-0.0	-0.0	2.4086837768554688	12.94631004333496	-391.5660705566406	0.7713043689727783	-15.04166030883789	-395.482177734375	-0.0	-0.0	-0.0	-0.0	-0.0	-0.0	89337.625	-12672.5537109375	-6924.052734375
0.4015	-0.0	-0.0	-0.0	2.2967288494110107	13.408002853393556	-392.0505065917969	0.0815186649560928	-15.18416976928711	-396.7998046875	-0.0	-0.0	-0.0	-0.0	-0.0	-0.0	89716.8359375	-12594.0693359375	-7016.00341796875
0.402	-0.0	-0.0	-0.0	2.1130075454711914	13.153136253356934	-392.0096435546875	-0.0272284783422946	-15.54461669921875	-398.4891662597656	-0.0	-0.0	-0.0	-0.0	-0.0	-0.0	90119.046875	-12527.6962890625	-7036.69384765625
0.4025	-0.0	-0.0	-0.0	1.9626312255859373	13.392651557922363	-392.3632507324219	-0.1501573026180267	-15.795806884765623	-401.6589050292969	-0.0	-0.0	-0.0	-0.0	-0.0	-0.0	90586.8984375	-12825.052734375	-6881.54931640625
0.403	-0.0	-0.0	-0.0	1.5118519067764282	13.754218101501465	-392.6433410644531	0.0887107849121093	-16.081195831298828	-403.7794494628906	-0.0	-0.0	-0.0	-0.0	-0.0	-0.0	91183.0859375	-12847.009765625	-7146.14404296875
0.4035	-0.0	-0.0	-0.0	1.7041194438934326	13.33681297302246	-392.0838928222656	-0.0208883881568908	-16.019987106323242	-405.6575927734375	-0.0	-0.0	-0.0	-0.0	-0.0	-0.0	91358.6171875	-12897.0322265625	-7050.6083984375
0.404	-0.0	-0.0	-0.0	1.7188575267791748	13.58046817779541	-392.2710266113281	-0.0548987239599227	-16.087217330932617	-404.7747802734375	-0.0	-0.0	-0.0	-0.0	-0.0	-0.0	91372.5625	-13011.146484375	-6982.22607421875
0.4045	-0.0	-0.0	-0.0	2.0843851566314697	13.42197036743164	-392.416259765625	0.0061633586883544	-16.047151565551758	-405.015869140625	-0.0	-0.0	-0.0	-0.0	-0.0	-0.0	91416.25	-12865.1494140625	-7004.78515625
0.405	-0.0	-0.0	-0.0	1.9463677406311035	12.859103202819824	-391.0665893554688	-0.0275714248418808	-15.809581756591797	-404.0533447265625	-0.0	-0.0	-0.0	-0.0	-0.0	-0.0	91407.0234375	-12889.3818359375	-7013.9677734375
0.4055	-0.0	-0.0	-0.0	2.258732795715332	12.713406562805176	-392.41302490234375	-0.0610591992735862	-15.78205108642578	-403.2927856445313	-0.0	-0.0	-0.0	-0.0	-0.0	-0.0	90988.2734375	-12716.9619140625	-6984.34765625
0.406	-0.0	-0.0	-0.0	2.590798139572144	12.175004959106444	-389.2879028320313	-0.0333366766571998	-15.555866241455078	-401.3931884765625	-0.0	-0.0	-0.0	-0.0	-0.0	-0.0	90689.71875	-12788.5576171875	-7102.9384765625
0.40650000000000003	-0.0	-0.0	-0.0	2.3230578899383545	12.542451858520508	-391.0690002441406	0.2661323547363281	-15.72126007080078	-398.7311401367188	-0.0	-0.0	-0.0	-0.0	-0.0	-0.0	90292.5703125	-12612.8212890625	-7004.51708984375
0.40700000000000003	-0.0	-0.0	-0.0	2.851393461227417	12.153671264648438	-393.8088684082031	0.5653691291809082	-15.125411987304688	-396.7456665039063	-0.0	-0.0	-0.0	-0.0	-0.0	-0.0	89960.8828125	-12466.15234375	-6933.75537109375
0.40750000000000003	-0.0	-0.0	-0.0	2.529747724533081	12.210865020751951	-394.1614074707031	0.4156951308250427	-15.57235336303711	-395.3695068359375	-0.0	-0.0	-0.0	-0.0	-0.0	-0.0	89424.109375	-12539.8662109375	-6926.41357421875
0.40800000000000003	-0.0	-0.0	-0.0	2.26503849029541	12.745647430419922	-395.4358520507813	0.6767929792404175	-15.191329956054688	-394.5413208007813	-0.0	-0.0	-0.0	-0.0	-0.0	-0.0	89079.9375	-12500.767578125	-6944.7626953125
0.40850000000000003	-0.0	-0.0	-0.0	2.411508083343506	13.46433448791504	-397.1106262207031	0.7936113476753235	-14.800661087036133	-393.1258850097656	-0.0	-0.0	-0.0	-0.0	-0.0	-0.0	88987.65625	-12348.0849609375	-6825.923828125
0.40900000000000003	-0.0	-0.0	-0.0	1.7526628971099854	13.521728515625	-400.1636352539063	0.8637745380401611	-14.693944931030272	-393.3836364746094	-0.0	-0.0	-0.0	-0.0	-0.0	-0.0	89096.6328125	-12304.2412109375	-6807.11376953125
